<svg xmlns="http://www.w3.org/2000/svg" role="img" aria-labelledby="title desc" viewBox="0 0 960 420">
  <title id="title">Vize toolchain map</title>
  <desc id="desc">Vize keeps Vue-specific analysis in a Rust core and shares it with compile, lint, type checking, Musea, playground, and CI workflows.</desc>
  <defs>
    <marker id="arrow" viewBox="0 0 10 10" refX="9" refY="5" markerWidth="8" markerHeight="8" orient="auto-start-reverse">
      <path d="M 0 0 L 10 5 L 0 10 z" fill="#3f5568" />
    </marker>
    <style>
      .bg { fill: #f7f5ef; }
      .panel { fill: #ffffff; stroke: #d9d0c3; stroke-width: 1.5; }
      .core { fill: #e8f2ed; stroke: #6a8f7a; stroke-width: 2; }
      .accent { fill: #edf1f8; stroke: #6e7f9b; stroke-width: 1.5; }
      .warm { fill: #f6eee8; stroke: #b08066; stroke-width: 1.5; }
      .text { fill: #211f1c; font: 600 22px ui-sans-serif, system-ui, -apple-system, BlinkMacSystemFont, "Segoe UI", sans-serif; }
      .small { fill: #625b53; font: 500 15px ui-sans-serif, system-ui, -apple-system, BlinkMacSystemFont, "Segoe UI", sans-serif; }
      .mono { fill: #5a625c; font: 600 13px ui-monospace, SFMono-Regular, Menlo, Monaco, Consolas, monospace; letter-spacing: 0.06em; }
      .line { fill: none; stroke: #3f5568; stroke-width: 2.2; marker-end: url(#arrow); }
    </style>
  </defs>
  <rect class="bg" width="960" height="420" rx="0" />
  <text x="56" y="58" class="mono">VIZE TOOLCHAIN</text>
  <text x="56" y="88" class="text">One Vue-aware core, many consumers</text>

  <rect x="70" y="150" width="170" height="82" rx="6" class="panel" />
  <text x="98" y="184" class="text">Vue SFC</text>
  <text x="98" y="210" class="small">template + script + style</text>

  <rect x="330" y="130" width="260" height="122" rx="8" class="core" />
  <text x="378" y="178" class="text">Rust Core</text>
  <text x="378" y="204" class="small">parse, map, analyze, diagnose</text>
  <text x="378" y="226" class="small">shared semantic model</text>

  <rect x="690" y="70" width="180" height="66" rx="6" class="accent" />
  <text x="724" y="108" class="text">Compile</text>

  <rect x="690" y="154" width="180" height="66" rx="6" class="warm" />
  <text x="730" y="192" class="text">Lint</text>

  <rect x="690" y="238" width="180" height="66" rx="6" class="accent" />
  <text x="718" y="276" class="text">Type Check</text>

  <rect x="248" y="318" width="164" height="54" rx="6" class="panel" />
  <text x="284" y="351" class="small">Musea</text>

  <rect x="442" y="318" width="164" height="54" rx="6" class="panel" />
  <text x="478" y="351" class="small">Playground</text>

  <rect x="636" y="318" width="164" height="54" rx="6" class="panel" />
  <text x="681" y="351" class="small">CI</text>

  <path d="M 240 191 L 320 191" class="line" />
  <path d="M 590 170 C 640 150 647 112 680 103" class="line" />
  <path d="M 590 191 L 680 187" class="line" />
  <path d="M 590 212 C 640 232 647 264 680 271" class="line" />
  <path d="M 420 252 L 344 312" class="line" />
  <path d="M 488 252 L 520 310" class="line" />
  <path d="M 552 252 L 690 312" class="line" />
</svg>
